<svg width="800" height="600" viewBox="0 0 800 600" xmlns="http://www.w3.org/2000/svg">
  <!-- Background with subtle gradient -->
  <defs>
    <linearGradient id="bgGradient" x1="0%" y1="0%" x2="100%" y2="100%">
      <stop offset="0%" style="stop-color:#f3f4f6;stop-opacity:1" />
      <stop offset="100%" style="stop-color:#e5e7eb;stop-opacity:1" />
    </linearGradient>
    
    <!-- Dollar symbol gradient -->
    <linearGradient id="dollarGradient" x1="0%" y1="0%" x2="100%" y2="100%">
      <stop offset="0%" style="stop-color:#3b82f6;stop-opacity:1" />
      <stop offset="100%" style="stop-color:#2563eb;stop-opacity:1" />
    </linearGradient>
    
    <!-- AI circuit pattern gradient -->
    <linearGradient id="circuitGradient" x1="0%" y1="0%" x2="100%" y2="100%">
      <stop offset="0%" style="stop-color:#6366f1;stop-opacity:0.2" />
      <stop offset="100%" style="stop-color:#4f46e5;stop-opacity:0.2" />
    </linearGradient>
  </defs>
  
  <!-- Background rectangle -->
  <rect width="800" height="600" fill="url(#bgGradient)" rx="20" />
  
  <!-- Split Dollar Symbol -->
  <g transform="translate(300, 150)">
    <!-- Left half of dollar symbol -->
    <path d="M100,0 C100,0 80,20 80,40 C80,60 90,70 100,80 C110,90 120,100 120,120 C120,140 100,160 100,160" 
          stroke="url(#dollarGradient)" stroke-width="30" fill="none" stroke-linecap="round" />
    
    <!-- Right half of dollar symbol with gap -->
    <path d="M100,0 C100,0 120,20 120,40 C120,60 110,70 100,80 C90,90 80,100 80,120 C80,140 100,160 100,160" 
          stroke="url(#dollarGradient)" stroke-width="30" fill="none" stroke-linecap="round" 
          transform="translate(40, 0)" />
    
    <!-- Vertical line -->
    <line x1="120" y1="-20" x2="120" y2="180" 
          stroke="url(#dollarGradient)" stroke-width="30" stroke-linecap="round" />
  </g>
  
  <!-- AI Circuit Pattern Background -->
  <g transform="translate(50, 50)" opacity="0.1">
    <path d="M0,0 L700,0 L700,500 L0,500 Z" 
          stroke="url(#circuitGradient)" 
          stroke-width="2" 
          fill="none" 
          stroke-dasharray="20,20" />
    
    <!-- Circuit nodes -->
    <circle cx="100" cy="100" r="5" fill="#4f46e5" />
    <circle cx="300" cy="200" r="5" fill="#4f46e5" />
    <circle cx="500" cy="300" r="5" fill="#4f46e5" />
    <circle cx="200" cy="400" r="5" fill="#4f46e5" />
    
    <!-- Circuit connections -->
    <line x1="100" y1="100" x2="300" y2="200" stroke="#4f46e5" stroke-width="2" />
    <line x1="300" y1="200" x2="500" y2="300" stroke="#4f46e5" stroke-width="2" />
    <line x1="500" y1="300" x2="200" y2="400" stroke="#4f46e5" stroke-width="2" />
  </g>
  <!-- Background -->
  <rect width="800" height="600" fill="#ffffff" />
  
  <!-- Elegant Split Dollar Symbol -->
  <g transform="translate(300, 150)">
    <!-- Left half with gradient -->
    <path d="M100,0 C70,0 50,20 50,50 L50,250 C50,280 70,300 100,300 L110,300 L110,0 L100,0 Z" fill="url(#blueGradient)" />
    
    <!-- Right half with gradient -->
    <path d="M110,0 L120,0 C150,0 170,20 170,50 L170,250 C170,280 150,300 120,300 L110,300 L110,0 Z" fill="url(#blueGradient2)" />
    
    <!-- Vertical line -->
    <rect x="105" y="-20" width="10" height="340" fill="#0284c7" opacity="0.9" />
  </g>
  
  <!-- Modern Circuit Elements -->
  <g transform="translate(450, 200)" stroke="#0ea5e9" stroke-width="2" fill="none">
    <path d="M0,0 L50,0 L50,50 L100,50" stroke="url(#blueGradient)" />
    <path d="M0,30 L30,30 L30,80 L80,80" stroke="url(#blueGradient2)" />
    <circle cx="100" cy="50" r="4" fill="#0ea5e9" />
    <circle cx="80" cy="80" r="4" fill="#0ea5e9" />
  </g>
  
  <!-- Gradients -->
  <defs>
    <linearGradient id="blueGradient" x1="0%" y1="0%" x2="100%" y2="100%">
      <stop offset="0%" style="stop-color:#60a5fa;stop-opacity:1" />
      <stop offset="100%" style="stop-color:#0ea5e9;stop-opacity:1" />
    </linearGradient>
    <linearGradient id="blueGradient2" x1="100%" y1="0%" x2="0%" y2="100%">
      <stop offset="0%" style="stop-color:#0ea5e9;stop-opacity:1" />
      <stop offset="100%" style="stop-color:#0284c7;stop-opacity:1" />
    </linearGradient>
  </defs>
</svg>